<mxfile host="Electron" agent="Mozilla/5.0 (Windows NT 10.0; Win64; x64) AppleWebKit/537.36 (KHTML, like Gecko) draw.io/24.7.17 Chrome/128.0.6613.36 Electron/32.0.1 Safari/537.36" version="24.7.17">
  <diagram name="第 1 页" id="gQKwrbpdDcLALgzKd0WU">
    <mxGraphModel dx="2901" dy="-3472" grid="1" gridSize="10" guides="1" tooltips="1" connect="1" arrows="1" fold="1" page="1" pageScale="1" pageWidth="827" pageHeight="1169" math="0" shadow="0">
      <root>
        <mxCell id="0" />
        <mxCell id="1" parent="0" />
        <mxCell id="IahbWgsBUWRjeVjBjyvf-19" style="edgeStyle=orthogonalEdgeStyle;rounded=0;orthogonalLoop=1;jettySize=auto;html=1;entryX=0.5;entryY=0;entryDx=0;entryDy=0;" parent="1" source="IahbWgsBUWRjeVjBjyvf-1" target="IahbWgsBUWRjeVjBjyvf-2" edge="1">
          <mxGeometry relative="1" as="geometry" />
        </mxCell>
        <mxCell id="IahbWgsBUWRjeVjBjyvf-1" value="下载源码包元数据信息文件（.primary.xml）" style="rounded=0;whiteSpace=wrap;html=1;fontSize=15;" parent="1" vertex="1">
          <mxGeometry x="-600" y="4761" width="160" height="80" as="geometry" />
        </mxCell>
        <mxCell id="IahbWgsBUWRjeVjBjyvf-20" style="edgeStyle=orthogonalEdgeStyle;rounded=0;orthogonalLoop=1;jettySize=auto;html=1;entryX=0.5;entryY=0;entryDx=0;entryDy=0;" parent="1" source="IahbWgsBUWRjeVjBjyvf-2" target="IahbWgsBUWRjeVjBjyvf-5" edge="1">
          <mxGeometry relative="1" as="geometry" />
        </mxCell>
        <mxCell id="IahbWgsBUWRjeVjBjyvf-2" value="解压源码包" style="rounded=0;whiteSpace=wrap;html=1;fontSize=15;" parent="1" vertex="1">
          <mxGeometry x="-600" y="4881" width="160" height="80" as="geometry" />
        </mxCell>
        <mxCell id="IahbWgsBUWRjeVjBjyvf-21" style="edgeStyle=orthogonalEdgeStyle;rounded=0;orthogonalLoop=1;jettySize=auto;html=1;" parent="1" source="IahbWgsBUWRjeVjBjyvf-3" target="IahbWgsBUWRjeVjBjyvf-6" edge="1">
          <mxGeometry relative="1" as="geometry" />
        </mxCell>
        <mxCell id="IahbWgsBUWRjeVjBjyvf-3" value="下载源码包" style="rounded=0;whiteSpace=wrap;html=1;fontSize=15;" parent="1" vertex="1">
          <mxGeometry x="-358.99999999999994" y="4761" width="160" height="80" as="geometry" />
        </mxCell>
        <mxCell id="IahbWgsBUWRjeVjBjyvf-31" style="edgeStyle=orthogonalEdgeStyle;rounded=0;orthogonalLoop=1;jettySize=auto;html=1;" parent="1" source="IahbWgsBUWRjeVjBjyvf-4" target="IahbWgsBUWRjeVjBjyvf-17" edge="1">
          <mxGeometry relative="1" as="geometry" />
        </mxCell>
        <mxCell id="IahbWgsBUWRjeVjBjyvf-4" value="下载二进制包元数据信息文件.primary.xml" style="rounded=0;whiteSpace=wrap;html=1;fontSize=15;" parent="1" vertex="1">
          <mxGeometry x="-38.99999999999994" y="5441" width="160" height="80" as="geometry" />
        </mxCell>
        <mxCell id="IahbWgsBUWRjeVjBjyvf-23" style="edgeStyle=orthogonalEdgeStyle;rounded=0;orthogonalLoop=1;jettySize=auto;html=1;entryX=0.5;entryY=0;entryDx=0;entryDy=0;" parent="1" source="IahbWgsBUWRjeVjBjyvf-5" target="IahbWgsBUWRjeVjBjyvf-8" edge="1">
          <mxGeometry relative="1" as="geometry" />
        </mxCell>
        <mxCell id="IahbWgsBUWRjeVjBjyvf-5" value="提取源码包源码特征" style="rounded=0;whiteSpace=wrap;html=1;fontSize=15;" parent="1" vertex="1">
          <mxGeometry x="-600" y="5001" width="160" height="80" as="geometry" />
        </mxCell>
        <mxCell id="IahbWgsBUWRjeVjBjyvf-22" style="edgeStyle=orthogonalEdgeStyle;rounded=0;orthogonalLoop=1;jettySize=auto;html=1;" parent="1" source="IahbWgsBUWRjeVjBjyvf-6" target="IahbWgsBUWRjeVjBjyvf-8" edge="1">
          <mxGeometry relative="1" as="geometry" />
        </mxCell>
        <mxCell id="IahbWgsBUWRjeVjBjyvf-6" value="提取源码包元数据信息特征" style="rounded=0;whiteSpace=wrap;html=1;fontSize=15;" parent="1" vertex="1">
          <mxGeometry x="-358.99999999999994" y="5001" width="160" height="80" as="geometry" />
        </mxCell>
        <mxCell id="IahbWgsBUWRjeVjBjyvf-24" style="edgeStyle=orthogonalEdgeStyle;rounded=0;orthogonalLoop=1;jettySize=auto;html=1;entryX=0.5;entryY=0;entryDx=0;entryDy=0;" parent="1" source="IahbWgsBUWRjeVjBjyvf-8" target="IahbWgsBUWRjeVjBjyvf-9" edge="1">
          <mxGeometry relative="1" as="geometry" />
        </mxCell>
        <mxCell id="IahbWgsBUWRjeVjBjyvf-27" style="edgeStyle=orthogonalEdgeStyle;rounded=0;orthogonalLoop=1;jettySize=auto;html=1;exitX=0;exitY=0.5;exitDx=0;exitDy=0;" parent="1" source="IahbWgsBUWRjeVjBjyvf-40" target="IahbWgsBUWRjeVjBjyvf-11" edge="1">
          <mxGeometry relative="1" as="geometry" />
        </mxCell>
        <mxCell id="IahbWgsBUWRjeVjBjyvf-8" value="merge合并" style="rounded=0;whiteSpace=wrap;html=1;fontSize=15;" parent="1" vertex="1">
          <mxGeometry x="-481.04999999999995" y="5161" width="160" height="80" as="geometry" />
        </mxCell>
        <mxCell id="IahbWgsBUWRjeVjBjyvf-25" style="edgeStyle=orthogonalEdgeStyle;rounded=0;orthogonalLoop=1;jettySize=auto;html=1;entryX=0.5;entryY=0;entryDx=0;entryDy=0;" parent="1" source="IahbWgsBUWRjeVjBjyvf-9" target="IahbWgsBUWRjeVjBjyvf-10" edge="1">
          <mxGeometry relative="1" as="geometry" />
        </mxCell>
        <mxCell id="IahbWgsBUWRjeVjBjyvf-9" value="入库（es）" style="rounded=0;whiteSpace=wrap;html=1;fontSize=15;" parent="1" vertex="1">
          <mxGeometry x="-481.04999999999995" y="5401" width="160" height="80" as="geometry" />
        </mxCell>
        <mxCell id="IahbWgsBUWRjeVjBjyvf-30" style="edgeStyle=orthogonalEdgeStyle;rounded=0;orthogonalLoop=1;jettySize=auto;html=1;entryX=1;entryY=0.5;entryDx=0;entryDy=0;exitX=0.5;exitY=1;exitDx=0;exitDy=0;" parent="1" source="IahbWgsBUWRjeVjBjyvf-10" target="IahbWgsBUWRjeVjBjyvf-13" edge="1">
          <mxGeometry relative="1" as="geometry" />
        </mxCell>
        <mxCell id="IahbWgsBUWRjeVjBjyvf-34" style="edgeStyle=orthogonalEdgeStyle;rounded=0;orthogonalLoop=1;jettySize=auto;html=1;entryX=0;entryY=0.5;entryDx=0;entryDy=0;dashed=1;strokeColor=#001DBC;strokeWidth=3;align=center;verticalAlign=middle;fontFamily=Helvetica;fontSize=11;fontColor=default;labelBackgroundColor=default;endArrow=classic;fillColor=#0050ef;exitX=1;exitY=0.5;exitDx=0;exitDy=0;" parent="1" source="IahbWgsBUWRjeVjBjyvf-47" target="IahbWgsBUWRjeVjBjyvf-18" edge="1">
          <mxGeometry relative="1" as="geometry" />
        </mxCell>
        <mxCell id="IahbWgsBUWRjeVjBjyvf-48" style="edgeStyle=orthogonalEdgeStyle;rounded=0;orthogonalLoop=1;jettySize=auto;html=1;entryX=0;entryY=0.5;entryDx=0;entryDy=0;" parent="1" source="IahbWgsBUWRjeVjBjyvf-10" target="IahbWgsBUWRjeVjBjyvf-47" edge="1">
          <mxGeometry relative="1" as="geometry" />
        </mxCell>
        <mxCell id="IahbWgsBUWRjeVjBjyvf-10" value="特征映射" style="rounded=0;whiteSpace=wrap;html=1;fontSize=15;" parent="1" vertex="1">
          <mxGeometry x="-481.04999999999995" y="5681" width="160" height="80" as="geometry" />
        </mxCell>
        <mxCell id="IahbWgsBUWRjeVjBjyvf-26" style="edgeStyle=orthogonalEdgeStyle;rounded=0;orthogonalLoop=1;jettySize=auto;html=1;entryX=0.5;entryY=0;entryDx=0;entryDy=0;" parent="1" source="IahbWgsBUWRjeVjBjyvf-11" target="IahbWgsBUWRjeVjBjyvf-12" edge="1">
          <mxGeometry relative="1" as="geometry" />
        </mxCell>
        <mxCell id="IahbWgsBUWRjeVjBjyvf-29" style="edgeStyle=orthogonalEdgeStyle;rounded=0;orthogonalLoop=1;jettySize=auto;html=1;entryX=0;entryY=0.5;entryDx=0;entryDy=0;exitX=0;exitY=0.5;exitDx=0;exitDy=0;" parent="1" source="IahbWgsBUWRjeVjBjyvf-11" target="IahbWgsBUWRjeVjBjyvf-13" edge="1">
          <mxGeometry relative="1" as="geometry">
            <Array as="points">
              <mxPoint x="-760" y="5561" />
              <mxPoint x="-760" y="5881" />
            </Array>
          </mxGeometry>
        </mxCell>
        <mxCell id="IahbWgsBUWRjeVjBjyvf-11" value="根据source0相同获取匹配清单" style="rounded=0;whiteSpace=wrap;html=1;fontSize=15;" parent="1" vertex="1">
          <mxGeometry x="-721.15" y="5521" width="160" height="80" as="geometry" />
        </mxCell>
        <mxCell id="IahbWgsBUWRjeVjBjyvf-45" style="edgeStyle=orthogonalEdgeStyle;rounded=0;orthogonalLoop=1;jettySize=auto;html=1;entryX=0;entryY=0.5;entryDx=0;entryDy=0;dashed=1;strokeColor=#001DBC;strokeWidth=3;align=center;verticalAlign=middle;fontFamily=Helvetica;fontSize=11;fontColor=default;labelBackgroundColor=default;endArrow=classic;fillColor=#0050ef;" parent="1" source="IahbWgsBUWRjeVjBjyvf-12" target="IahbWgsBUWRjeVjBjyvf-10" edge="1">
          <mxGeometry relative="1" as="geometry" />
        </mxCell>
        <mxCell id="IahbWgsBUWRjeVjBjyvf-12" value="根据算法source0相同&lt;div&gt;计算相似度&lt;/div&gt;" style="rounded=0;whiteSpace=wrap;html=1;fontSize=15;" parent="1" vertex="1">
          <mxGeometry x="-721.15" y="5681" width="160" height="80" as="geometry" />
        </mxCell>
        <mxCell id="IahbWgsBUWRjeVjBjyvf-13" value="根据source0相同，特征映射成功的正确率" style="rounded=0;whiteSpace=wrap;html=1;fontSize=15;" parent="1" vertex="1">
          <mxGeometry x="-721.15" y="5841" width="160" height="80" as="geometry" />
        </mxCell>
        <mxCell id="IP8ENm1XBiYkS50j0vtp-2" style="edgeStyle=orthogonalEdgeStyle;rounded=0;orthogonalLoop=1;jettySize=auto;html=1;entryX=0.5;entryY=0;entryDx=0;entryDy=0;dashed=1;strokeColor=#001DBC;strokeWidth=3;align=center;verticalAlign=middle;fontFamily=Helvetica;fontSize=11;fontColor=default;labelBackgroundColor=default;endArrow=classic;fillColor=#0050ef;" edge="1" parent="1" source="IahbWgsBUWRjeVjBjyvf-14" target="IP8ENm1XBiYkS50j0vtp-1">
          <mxGeometry relative="1" as="geometry" />
        </mxCell>
        <mxCell id="IahbWgsBUWRjeVjBjyvf-14" value="二进制包包名映射" style="rounded=0;whiteSpace=wrap;html=1;fontSize=15;" parent="1" vertex="1">
          <mxGeometry x="-38.94999999999993" y="5801" width="160" height="80" as="geometry" />
        </mxCell>
        <mxCell id="IahbWgsBUWRjeVjBjyvf-39" style="edgeStyle=orthogonalEdgeStyle;rounded=0;orthogonalLoop=1;jettySize=auto;html=1;entryX=0.5;entryY=0;entryDx=0;entryDy=0;" parent="1" source="IahbWgsBUWRjeVjBjyvf-15" target="IahbWgsBUWRjeVjBjyvf-37" edge="1">
          <mxGeometry relative="1" as="geometry" />
        </mxCell>
        <mxCell id="IahbWgsBUWRjeVjBjyvf-15" value="提取二进制包元数据信息特征" style="rounded=0;whiteSpace=wrap;html=1;fontSize=15;" parent="1" vertex="1">
          <mxGeometry x="200" y="5006" width="160" height="80" as="geometry" />
        </mxCell>
        <mxCell id="IahbWgsBUWRjeVjBjyvf-35" style="edgeStyle=orthogonalEdgeStyle;rounded=0;orthogonalLoop=1;jettySize=auto;html=1;entryX=0.5;entryY=0;entryDx=0;entryDy=0;" parent="1" source="IahbWgsBUWRjeVjBjyvf-16" target="IahbWgsBUWRjeVjBjyvf-15" edge="1">
          <mxGeometry relative="1" as="geometry" />
        </mxCell>
        <mxCell id="IahbWgsBUWRjeVjBjyvf-16" value="下载二进制包元数据信息文件.filelist.xml" style="rounded=0;whiteSpace=wrap;html=1;fontSize=15;" parent="1" vertex="1">
          <mxGeometry x="200" y="4761" width="160" height="80" as="geometry" />
        </mxCell>
        <mxCell id="IahbWgsBUWRjeVjBjyvf-32" style="edgeStyle=orthogonalEdgeStyle;rounded=0;orthogonalLoop=1;jettySize=auto;html=1;entryX=0.5;entryY=0;entryDx=0;entryDy=0;" parent="1" source="IahbWgsBUWRjeVjBjyvf-17" target="IahbWgsBUWRjeVjBjyvf-18" edge="1">
          <mxGeometry relative="1" as="geometry" />
        </mxCell>
        <mxCell id="IahbWgsBUWRjeVjBjyvf-17" value="二进制包映射到源码包" style="rounded=0;whiteSpace=wrap;html=1;fontSize=15;" parent="1" vertex="1">
          <mxGeometry x="-39" y="5561" width="160" height="80" as="geometry" />
        </mxCell>
        <mxCell id="IahbWgsBUWRjeVjBjyvf-33" style="edgeStyle=orthogonalEdgeStyle;rounded=0;orthogonalLoop=1;jettySize=auto;html=1;entryX=0.5;entryY=0;entryDx=0;entryDy=0;" parent="1" source="IahbWgsBUWRjeVjBjyvf-18" target="IahbWgsBUWRjeVjBjyvf-14" edge="1">
          <mxGeometry relative="1" as="geometry" />
        </mxCell>
        <mxCell id="IahbWgsBUWRjeVjBjyvf-41" value="是" style="edgeLabel;html=1;align=center;verticalAlign=middle;resizable=0;points=[];" parent="IahbWgsBUWRjeVjBjyvf-33" vertex="1" connectable="0">
          <mxGeometry x="-0.45" y="-2" relative="1" as="geometry">
            <mxPoint as="offset" />
          </mxGeometry>
        </mxCell>
        <mxCell id="IahbWgsBUWRjeVjBjyvf-18" value="特征映射存在源码包的映射关系" style="rhombus;whiteSpace=wrap;html=1;fontSize=15;" parent="1" vertex="1">
          <mxGeometry x="-38.94999999999999" y="5681" width="160" height="80" as="geometry" />
        </mxCell>
        <mxCell id="IahbWgsBUWRjeVjBjyvf-36" style="edgeStyle=orthogonalEdgeStyle;rounded=0;orthogonalLoop=1;jettySize=auto;html=1;entryX=0.5;entryY=0;entryDx=0;entryDy=0;" parent="1" source="IahbWgsBUWRjeVjBjyvf-37" target="IahbWgsBUWRjeVjBjyvf-38" edge="1">
          <mxGeometry relative="1" as="geometry" />
        </mxCell>
        <mxCell id="IahbWgsBUWRjeVjBjyvf-37" value="源码包特征" style="rounded=0;whiteSpace=wrap;html=1;fontSize=15;" parent="1" vertex="1">
          <mxGeometry x="200" y="5161" width="160" height="80" as="geometry" />
        </mxCell>
        <mxCell id="IahbWgsBUWRjeVjBjyvf-38" value="入库（es）" style="rounded=0;whiteSpace=wrap;html=1;fontSize=15;" parent="1" vertex="1">
          <mxGeometry x="200" y="5281" width="160" height="80" as="geometry" />
        </mxCell>
        <mxCell id="IahbWgsBUWRjeVjBjyvf-40" value="源码包特征" style="rounded=0;whiteSpace=wrap;html=1;fontSize=15;" parent="1" vertex="1">
          <mxGeometry x="-481.04999999999995" y="5281" width="160" height="80" as="geometry" />
        </mxCell>
        <mxCell id="IahbWgsBUWRjeVjBjyvf-47" value="源码包映射清单" style="rounded=0;whiteSpace=wrap;html=1;fontSize=15;" parent="1" vertex="1">
          <mxGeometry x="-279.99999999999994" y="5681" width="160" height="80" as="geometry" />
        </mxCell>
        <mxCell id="IP8ENm1XBiYkS50j0vtp-1" value="包名映射修复" style="rounded=0;whiteSpace=wrap;html=1;fontSize=15;" vertex="1" parent="1">
          <mxGeometry x="-38.99999999999993" y="6040" width="160" height="80" as="geometry" />
        </mxCell>
      </root>
    </mxGraphModel>
  </diagram>
</mxfile>
